<svg width="50" height="50" viewBox="0 0 50 50" fill="none" xmlns="http://www.w3.org/2000/svg">
<path d="M44.2875 5.30229e-08H2.58522C1.15728 0.000858364 -0.000286049 1.159 5.30229e-08 2.58751V44.2898C0.000858364 45.7177 1.159 46.8753 2.58751 46.875H25.0397V28.7476H18.9514V21.6522H25.0397V16.4306C25.0397 10.3752 28.7364 7.07932 34.138 7.07932C36.7252 7.07932 38.9485 7.27215 39.5966 7.35826V13.6871H35.8718C32.9329 13.6871 32.3639 15.0836 32.3639 17.1332V21.6522H39.3906L38.475 28.7476H32.3639V46.875H44.2875C45.7163 46.8753 46.8747 45.7174 46.875 44.2886C46.875 44.2883 46.875 44.2881 46.875 44.2875V2.58522C46.8744 1.15728 45.716 -0.000286049 44.2875 5.30229e-08Z" fill="white"/>
</svg>
